<svg xmlns="http://www.w3.org/2000/svg" width="89" height="28" viewBox="0 0 89 28">
  <path fill="#FFF" fill-rule="evenodd" d="M88.985984,4.14053608 C89.0825614,4.5212717 88.6563037,4.88712799 88.4341755,5.16677174 C86.5711087,7.50019969 84.5052292,10.2603141 82.0227497,12.0318288 C82.2018569,12.9604736 82.1065964,14.1919564 81.783062,14.8715914 C82.4332038,15.7000195 83.1228546,16.4842474 83.524968,17.5559963 C82.996426,20.3550595 81.7676974,22.5283159 79.8058581,23.9479784 C77.8892347,25.332193 75.299642,25.8774765 72.3628095,26.5522975 C66.6840552,27.8568641 57.3397477,29.1439255 53.1267758,25.7619429 C48.5652472,28.429718 39.3456123,28.7820078 35.0790839,25.6039595 C32.0456739,29.4305713 20.0810445,29.0953489 21.8607035,21.501205 C19.6424951,23.1755665 16.3614956,25.4849249 13.2310692,26.7886162 C9.6015129,28.2984298 2.72695423,28.1290681 3.4144101,23.0005156 C3.49693992,22.3900257 3.75594309,22.0447379 4.04787039,21.501205 C2.98639639,19.6535432 2.31518309,18.3721709 1.67338202,16.7656416 C1.05792025,15.2256317 0.118924022,13.4733726 0.0104938816,11.3215599 C-0.219097063,6.74616811 3.35778059,3.84470013 6.89866119,2.48280445 C8.7068545,1.78610203 10.1752708,0.780434847 11.9650266,0.273662611 C14.639783,-0.486058116 16.9334975,0.980868081 17.1095319,3.43026722 C20.2197648,2.50993733 24.0069179,1.49464235 28.1136546,2.08850239 C31.3836794,-0.446234045 37.7696439,1.12003351 41.9672512,2.32438342 C42.9159052,2.59702513 44.1933615,3.30204247 44.895743,3.27184619 C45.4910113,3.2477767 46.5660939,2.44298038 47.1898964,2.16727528 C50.1350698,0.865772141 53.9849982,-0.519755406 58.1940192,0.194889725 C58.9907832,0.329241259 59.7203819,0.749800947 60.5680686,0.825948071 C61.1444604,0.877588074 61.8481588,0.697723317 62.4688884,0.668839925 C72.304424,0.190075826 80.493753,2.82196549 88.985984,4.14053608 Z M61.4398996,3.82456928 C60.4350551,3.945792 59.7216989,5.04073512 59.0654112,5.40265277 C59.112822,5.3982765 59.1580378,5.39039921 59.1426732,5.32344226 C59.263395,4.78472324 59.4925469,4.35584864 59.5390797,3.74579639 C54.2712187,1.89638407 49.1442729,4.60048221 45.3707284,6.66476946 C42.353122,8.31549906 39.660367,10.2541873 37.7709609,12.1884993 C38.4540269,11.0283497 39.1787967,9.88045374 39.9878524,8.79601367 C40.8074438,7.69494377 41.7209787,6.69934201 42.4426757,5.71861957 C40.8645123,5.30681243 39.282398,4.87181104 37.691065,4.53440051 C35.4289577,4.05476116 32.2827276,3.25915501 30.4091251,4.29764423 C29.8665354,4.59785645 29.4231571,5.33657107 28.9051507,5.40265277 C28.476259,5.45823142 27.7703657,5.14576564 27.2422626,5.08756123 C25.3076406,4.87312393 23.5284206,5.05211343 21.7803687,5.40265277 C20.1433808,5.72956025 16.6815182,6.31029148 16.2381398,7.84811327 C15.9541143,8.83583774 16.5871356,9.79336594 16.4760716,10.7697121 C16.3676414,11.7307413 15.4422538,13.0016106 14.9720972,13.7683333 C14.3965834,14.7074812 13.8114119,15.539848 12.8342236,15.9765999 C12.2415893,13.0370584 12.8864633,10.4222361 13.389105,7.92863667 C13.6990308,6.39212775 14.3241503,4.81929579 13.7855115,3.27184619 C12.2762693,3.06309805 11.0049589,4.25388151 9.51020331,4.84949206 C6.70243337,5.96981756 3.57507986,6.99036406 3.17779534,10.2161138 C2.95391124,12.032704 3.63917217,13.1880397 4.12776628,14.4781645 C5.17519265,17.2496573 6.47020849,19.5957764 8.00710696,21.7383989 C7.588312,22.5055593 6.60146603,22.7055549 6.50181566,23.7882445 C6.94870587,24.4188652 7.87892234,24.5015767 8.79816409,24.4993886 C11.454483,24.4932618 13.6323046,23.1611248 15.6051185,22.0526152 C19.9010592,19.6439154 22.7874081,15.9341501 25.8177452,12.4256932 C26.3497991,11.8086389 26.7879096,11.0655481 27.4810723,10.690064 C28.1619433,13.8072821 26.8375153,15.4737663 25.8958851,18.028196 C25.5332807,19.0124194 24.3883989,22.0920016 24.9463532,23.5506129 C25.557864,25.1558293 30.7686566,25.2258496 32.1501531,24.1847347 C32.8463888,23.6604573 33.1233905,22.4749254 33.4974086,21.7383989 C33.97415,20.7904985 34.3867991,19.9716981 34.7630122,19.1340798 C34.7840837,22.5913342 37.3600677,23.6061916 40.1454492,24.3422804 C46.0656471,25.9024212 52.0350116,23.1151739 55.2646495,21.1869887 C54.8607801,23.7479828 55.8586008,24.0048699 57.8775085,24.4223662 C63.0975198,25.4963032 68.3548452,24.2565055 72.6011802,23.2368343 C76.4936905,22.3025003 79.6241169,21.6425586 80.2009477,17.7914397 C79.5775842,17.2540335 78.0209312,17.3209905 76.9555063,17.4767858 C73.8163001,17.9345438 70.7763053,19.5174411 66.5857218,19.212415 C65.821004,19.1568364 64.1695296,18.8907591 64.0505637,18.4242485 C63.8666276,17.6955993 65.1748131,17.1857637 66.2700892,17.0037108 C69.4110513,16.4733067 73.9515086,17.0085247 76.4796429,16.0549352 C77.6943238,15.5980524 79.1587892,14.2799194 79.0117281,12.8199953 C78.9160286,11.834459 77.6245247,11.3184965 76.399747,11.2432247 C72.9361283,11.0274745 70.4602336,13.0427475 66.8245315,12.347358 C67.2788846,11.774504 67.3605364,10.8318552 67.9312213,10.3745348 C70.5897352,10.3189561 73.1731821,10.8458592 75.6890247,10.690064 C79.1873234,10.471688 81.1596984,9.00344894 82.8138068,7.05994678 C82.9911581,6.850761 83.4349754,6.62538302 83.2887923,6.27178029 C77.2127535,5.35013752 68.930359,2.90949092 61.4398996,3.82456928 Z M49.406788,9.90058459 C49.0174052,11.671224 48.2022037,13.6974377 47.7452168,15.6610707 C50.2610594,15.6965185 52.9147444,15.18537 55.5017032,15.0300124 C55.852016,14.5635018 56.0236604,13.9197523 56.2150594,13.2943831 C56.7335047,14.0260957 57.0987431,15.3958687 56.6110269,16.4501125 C52.6820806,16.3954091 49.8576291,19.6027784 46.0037497,19.6062795 C44.2776473,19.6084676 42.810548,18.618555 43.6283834,16.6868688 C44.7824839,13.9608893 47.6442495,12.0572112 49.406788,9.90058459 Z M58.5895478,6.98161152 C59.3296822,7.82229327 60.9499885,7.78597022 61.9135681,8.40258687 C60.6128454,8.73562112 58.9754186,8.73430824 57.7967347,9.19031573 C58.0746143,8.46648043 58.3235208,7.71594987 58.5895478,6.98161152 Z"/>
</svg>
